<svg width="24" height="24" viewBox="0 0 24 24" fill="none" xmlns="http://www.w3.org/2000/svg">
<path d="M4.16989 15.3L4.70022 14.7697L4.70022 14.7697L4.16989 15.3ZM8.69989 19.83L8.16956 20.3604L8.16956 20.3604L8.69989 19.83ZM15.4499 19.83L15.9788 20.3618L15.9802 20.3604L15.4499 19.83ZM19.8399 8.69005L20.3716 8.16114L20.3691 8.15855L19.8399 8.69005ZM15.2999 4.17005L14.7696 4.70038L14.7707 4.70155L15.2999 4.17005ZM11.6999 2.78005L11.7359 3.52919L11.739 3.52903L11.6999 2.78005ZM6.69989 3.02005L6.73361 3.76929L6.73585 3.76919L6.69989 3.02005ZM3.00989 6.69005L2.26084 6.65241L2.26076 6.65409L3.00989 6.69005ZM2.76989 11.69L2.02075 11.6541L2.02063 11.6567L2.76989 11.69ZM3.63956 15.8304L8.16956 20.3604L9.23022 19.2997L4.70022 14.7697L3.63956 15.8304ZM8.16956 20.3604C10.3232 22.5141 13.817 22.512 15.9788 20.3618L14.921 19.2983C13.3428 20.8681 10.7965 20.866 9.23022 19.2997L8.16956 20.3604ZM15.9802 20.3604L20.3702 15.9704L19.3096 14.9097L14.9196 19.2997L15.9802 20.3604ZM20.3702 15.9704C22.5239 13.8167 22.5219 10.3229 20.3716 8.16114L19.3081 9.21896C20.8779 10.7972 20.8759 13.3434 19.3096 14.9097L20.3702 15.9704ZM20.3691 8.15855L15.8291 3.63855L14.7707 4.70155L19.3107 9.22155L20.3691 8.15855ZM15.8302 3.63972C14.732 2.54148 13.2158 1.94983 11.6608 2.03107L11.739 3.52903C12.8639 3.47026 13.9678 3.89862 14.7696 4.70038L15.8302 3.63972ZM11.6639 2.03091L6.66393 2.27091L6.73585 3.76919L11.7359 3.52919L11.6639 2.03091ZM6.66618 2.27081C4.27899 2.37823 2.38019 4.27727 2.26084 6.65241L3.75895 6.72769C3.83959 5.12283 5.1208 3.84187 6.73361 3.76929L6.66618 2.27081ZM2.26076 6.65409L2.02076 11.6541L3.51903 11.726L3.75903 6.72601L2.26076 6.65409ZM2.02063 11.6567C1.9513 13.2168 2.54058 14.7314 3.63956 15.8304L4.70022 14.7697C3.8992 13.9687 3.46849 12.8633 3.51915 11.7233L2.02063 11.6567ZM11.2499 9.50005C11.2499 10.4665 10.4664 11.25 9.49989 11.25V12.75C11.2948 12.75 12.7499 11.295 12.7499 9.50005H11.2499ZM9.49989 11.25C8.53339 11.25 7.74989 10.4665 7.74989 9.50005H6.24989C6.24989 11.295 7.70497 12.75 9.49989 12.75V11.25ZM7.74989 9.50005C7.74989 8.53355 8.53339 7.75005 9.49989 7.75005V6.25005C7.70497 6.25005 6.24989 7.70512 6.24989 9.50005H7.74989ZM9.49989 7.75005C10.4664 7.75005 11.2499 8.53355 11.2499 9.50005H12.7499C12.7499 7.70512 11.2948 6.25005 9.49989 6.25005V7.75005Z" fill="#292D32"/>
</svg>
